HIERARCHY
ROOT root
{
	OFFSET	0	13.1	24.9
	CHANNELS 6  Xposition Yposition Zposition Xrotation Yrotation Zrotation
	JOINT spine_1
	{
		OFFSET	0	9.99999	0
		CHANNELS 3  Xrotation Yrotation Zrotation
		JOINT spine_2
		{
			OFFSET	0	112	-10
			CHANNELS 3  Xrotation Yrotation Zrotation
			JOINT spine_3
			{
				OFFSET	0	206.5	19.3
				CHANNELS 3  Xrotation Yrotation Zrotation
				JOINT spine_4
				{
					OFFSET	0	110.4	14.6
					CHANNELS 3  Xrotation Yrotation Zrotation
					JOINT neck_1
					{
						OFFSET	0	71.8	-50.3
						CHANNELS 3  Xrotation Yrotation Zrotation
						JOINT neck_2
						{
							OFFSET	0	86.2	-25.8
							CHANNELS 3  Xrotation Yrotation Zrotation
							JOINT head_ee
							{
								OFFSET	0	179.8	-8.7
								CHANNELS 3  Xrotation Yrotation Zrotation
								End Site
								{
									OFFSET	1	0	0
								}
							}
						}
					}
					JOINT left_clavicle
					{
						OFFSET	-43.2	22.4	-70.8
						CHANNELS 3  Xrotation Yrotation Zrotation
						JOINT left_shoulder
						{
							OFFSET	-93.9	-5.79999	48.7
							CHANNELS 3  Xrotation Yrotation Zrotation
							JOINT left_elbow
							{
								OFFSET	-291.4	-30.8	15.2
								CHANNELS 3  Xrotation Yrotation Zrotation
								JOINT left_lowarm_twist
								{
									OFFSET	-110.7	-3.89999	13.6
									CHANNELS 3  Xrotation Yrotation Zrotation
									JOINT left_hand
									{
										OFFSET	-110.7	-3.89999	13.6
										CHANNELS 3  Xrotation Yrotation Zrotation
										JOINT left_ee
										{
											OFFSET	-80.8	-5.10001	12.1
											CHANNELS 3  Xrotation Yrotation Zrotation
											End Site
											{
												OFFSET	1	0	0
											}
										}
									}
								}
							}
						}
					}
					JOINT right_clavicle
					{
						OFFSET	43.2	22.4	-70.8
						CHANNELS 3  Xrotation Yrotation Zrotation
						JOINT right_shoulder
						{
							OFFSET	93.9	-5.79999	48.7
							CHANNELS 3  Xrotation Yrotation Zrotation
							JOINT right_elbow
							{
								OFFSET	291.4	-30.8	15.2
								CHANNELS 3  Xrotation Yrotation Zrotation
								JOINT right_lowarm_twist
								{
									OFFSET	110.7	-3.89999	13.6
									CHANNELS 3  Xrotation Yrotation Zrotation
									JOINT right_hand
									{
										OFFSET	110.7	-3.89999	13.6
										CHANNELS 3  Xrotation Yrotation Zrotation
										JOINT right_ee
										{
											OFFSET	80.8	-5.10001	12.1
											CHANNELS 3  Xrotation Yrotation Zrotation
											End Site
											{
												OFFSET	1	0	0
											}
										}
									}
								}
							}
						}
					}
				}
			}
		}
	}
	JOINT left_hip
	{
		OFFSET	-82.8	-127.5	0.300001
		CHANNELS 3  Xrotation Yrotation Zrotation
		JOINT left_knee
		{
			OFFSET	-28.2	-396.7	2.2
			CHANNELS 3  Xrotation Yrotation Zrotation
			JOINT left_ankle
			{
				OFFSET	-11.7	-411.3	35.4
				CHANNELS 3  Xrotation Yrotation Zrotation
				JOINT left_toes
				{
					OFFSET	0	-60	-88.6
					CHANNELS 3  Xrotation Yrotation Zrotation
					JOINT left_foot_ee
					{
						OFFSET	-22.5	-16.5	-42.2
						CHANNELS 3  Xrotation Yrotation Zrotation
						End Site
						{
							OFFSET	1	0	0
						}
					}
				}
			}
		}
	}
	JOINT right_hip
	{
		OFFSET	82.8	-127.5	0.300001
		CHANNELS 3  Xrotation Yrotation Zrotation
		JOINT right_knee
		{
			OFFSET	28.2	-396.7	2.2
			CHANNELS 3  Xrotation Yrotation Zrotation
			JOINT right_ankle
			{
				OFFSET	11.7	-411.3	35.4
				CHANNELS 3  Xrotation Yrotation Zrotation
				JOINT right_toes
				{
					OFFSET	0	-60	-88.6
					CHANNELS 3  Xrotation Yrotation Zrotation
					JOINT right_foot_ee
					{
						OFFSET	22.5	-16.5	-42.2
						CHANNELS 3  Xrotation Yrotation Zrotation
						End Site
						{
							OFFSET	1	0	0
						}
					}
				}
			}
		}
	}
}
MOTION
Frames: 9
Frame Time: 0.02
2803.18 738.029 -1496.3 -2.54648 52.7456 -3.43671 1.82824 0.733549 4.55834 1.83969 0.442317 4.59567 1.87545 -0.383435 4.60095 1.84609 0.34722 4.60382 -13.6642 16.8556 -1.47 -14.5674 33.0294 4.21311 -0.0 0.0 -0.0 -3.94729 22.6818 -2.87858 6.70007 -14.5235 52.8641 2.08031 -45.8557 0.880029 -7.15614 -0.306415 0.861393 -1.44707 17.0609 -1.8871 -0.0 0.0 -0.0 14.2508 26.4261 -28.5376 -17.6447 18.7805 -67.3583 0.272189 7.67932 -0.0182681 13.1876 -0.274854 1.65847 2.58074 19.9519 -8.64531 0.0 0.0 0.0 -11.1495 43.1217 12.8197 2.10576 -0.0924246 -0.309888 28.0025 -23.2978 -4.22011 -24.3661 0.0 0.0 -0.0 0.0 -0.0 21.7518 27.7426 -3.24569 -48.6911 1.1101 -7.16899 17.8314 -6.75719 2.45845 4.27319 -0.0 -0.0 0.0 0.0 0.0 
2786.24 737.922 -1496.48 -0.537721 53.0664 -5.44988 1.58695 0.694659 4.49758 1.59811 0.407359 4.53257 1.63133 -0.426022 4.53086 1.60281 0.29413 4.54131 -15.6208 16.9244 0.452986 -16.7314 32.1554 6.67394 -0.0 0.0 -0.0 -4.25327 22.4329 -3.36792 7.74333 -15.1378 52.3059 2.34406 -49.258 1.07475 -6.15492 -0.257091 0.743241 -1.36388 16.4548 -1.65562 -0.0 0.0 -0.0 14.0723 26.6865 -28.0856 -19.0597 18.3625 -66.94 0.27198 7.67348 -0.01824 13.4144 -0.27622 1.68741 2.73488 20.3312 -9.49059 0.0 0.0 0.0 -15.3049 42.5267 15.0593 1.00583 -0.0427232 -0.148433 28.7621 -21.7409 -4.2491 -24.1765 0.0 0.0 -0.0 0.0 -0.0 22.7679 26.7856 -3.60031 -42.5619 0.63775 -6.35316 11.929 -1.28523 1.69476 1.39338 -0.0 -0.0 0.0 0.0 0.0 
2769.78 741.265 -1494.86 -0.167989 51.9936 -5.72851 1.4723 0.827308 4.3549 1.48268 0.548793 4.3986 1.52629 -0.270176 4.42441 1.49924 0.431271 4.41164 -14.8542 16.8582 0.163055 -15.8633 32.1418 6.12457 -0.0 0.0 -0.0 -4.41383 22.7448 -3.52042 9.44009 -14.9066 52.1521 2.53761 -51.4891 1.22385 -6.55009 -0.276312 0.789976 -1.41393 15.4017 -2.44364 -0.0 0.0 -0.0 13.8724 26.6194 -27.6271 -20.1344 18.0193 -66.8522 0.254587 7.18809 -0.0159908 13.3576 -0.275889 1.68016 2.69756 19.9575 -9.42345 0.0 0.0 0.0 -16.8065 42.3511 15.9381 0.637926 -0.0267935 -0.0942264 28.7012 -21.1946 -4.22076 -24.0676 0.0 0.0 -0.0 0.0 -0.0 22.9966 24.9019 -4.62127 -37.7384 0.32919 -5.67906 10.54 -1.23764 1.50534 0.212579 -0.0 -0.0 0.0 0.0 0.0 
2755.88 742.524 -1492.78 -0.347093 52.4487 -5.28023 1.43631 0.793354 4.26613 1.44628 0.52054 4.30786 1.48692 -0.284276 4.32983 1.46099 0.402454 4.32047 -14.6003 16.4517 0.279725 -15.5158 31.2769 5.98316 -0.0 0.0 -0.0 -4.15561 23.2559 -3.03786 11.8425 -15.2257 51.8048 2.77562 -53.962 1.41329 -7.09122 -0.303154 0.853758 -1.52001 14.1392 -3.68397 -0.0 0.0 -0.0 13.456 25.5439 -26.7879 -21.3969 17.6253 -66.6599 0.247168 6.98069 -0.0150757 13.3968 -0.276119 1.68517 2.72669 20.1668 -9.5162 0.0 0.0 0.0 -17.489 42.298 16.2786 1.01393 -0.0430783 -0.149627 28.9294 -21.5994 -4.26348 -23.7897 0.0 0.0 -0.0 0.0 -0.0 22.9867 24.1735 -4.9177 -31.8504 0.0312444 -4.8254 8.18521 0.864761 1.1847 -1.52051 0.0 0.0 0.0 0.0 0.0 
2743.73 739.955 -1494.05 -0.645899 53.2836 -4.6516 1.37022 0.660756 4.11523 1.37955 0.397785 4.14885 1.4098 -0.381406 4.15039 1.38587 0.278274 4.15856 -14.0107 16.2061 -0.268178 -14.8423 31.0896 5.19234 -0.0 0.0 -0.0 -4.38084 22.8486 -3.44905 12.9783 -15.0491 51.2355 3.16306 -57.4412 1.73351 -7.38589 -0.318024 0.888384 -1.53014 12.418 -4.54585 -0.0 0.0 -0.0 12.9863 24.1463 -25.8506 -21.8697 17.3976 -66.6775 0.242199 6.84172 -0.0144778 13.4378 -0.276355 1.6904 2.63121 19.437 -9.23178 0.0 0.0 0.0 -18.3827 42.2734 16.8752 1.38178 -0.0593614 -0.203722 29.6826 -21.6398 -4.35387 -23.5404 0.0 0.0 -0.0 0.0 -0.0 23.2672 24.2951 -5.45366 -23.5553 -0.236509 -3.58162 4.98523 3.62061 0.735545 -4.02608 0.0 0.0 0.0 0.0 0.0 
2729.57 739.374 -1494.91 -1.77283 53.4742 -3.28387 1.38551 0.686447 4.07398 1.39464 0.426042 4.10932 1.4266 -0.344987 4.11691 1.40309 0.308964 4.11976 -13.4155 16.2954 -0.0659387 -14.175 31.0923 5.22638 -0.0 0.0 -0.0 -3.89815 22.2065 -2.91636 14.9206 -14.9044 50.6119 3.50864 -60.0713 2.02904 -7.53611 -0.325674 0.906008 -1.55967 10.3186 -5.70973 -0.0 0.0 -0.0 12.6492 22.9472 -25.1881 -22.6961 17.1151 -66.664 0.253491 7.15745 -0.0158538 13.5302 -0.276873 1.70219 2.64508 19.8508 -9.12426 0.0 0.0 0.0 -18.1353 42.3396 16.3711 2.02432 -0.0886387 -0.297966 28.8984 -21.0857 -4.24002 -23.4716 0.0 0.0 -0.0 0.0 -0.0 24.1092 24.0675 -6.33851 -14.9968 -0.321672 -2.2724 3.19631 4.8203 0.476342 -6.33319 0.0 0.0 0.0 0.0 0.0 
2719.7 740.37 -1492.4 -2.67449 54.6089 -2.39448 1.31924 0.745884 4.10808 1.32849 0.483195 4.14712 1.36514 -0.300193 4.16434 1.34113 0.36067 4.15955 -14.2763 15.4477 -2.18437 -15.1085 30.801 3.19902 -0.0 0.0 -0.0 -3.6507 21.2196 -2.77927 16.1451 -14.9022 50.4496 3.80577 -62.0404 2.2891 -7.84593 -0.341597 0.942291 -1.45419 7.52512 -6.31832 -0.0 0.0 -0.0 12.6035 22.5949 -25.115 -23.2401 17.1162 -66.7646 0.235304 6.6487 -0.0136679 14.1326 -0.279789 1.77907 2.53846 18.9278 -8.85497 0.0 0.0 0.0 -17.4275 42.3235 16.1942 3.72361 -0.171151 -0.545598 29.8485 -21.2417 -4.35752 -24.346 0.0 0.0 -0.0 0.0 -0.0 23.9643 23.924 -6.94155 -7.74493 -0.240549 -1.16337 -0.706981 4.96018 -0.106534 -8.8746 0.0 0.0 0.0 0.0 0.0 
2697.88 735.818 -1497.67 -1.9543 55.0641 -3.12761 1.33139 0.814542 4.07088 1.34044 0.554076 4.11436 1.38194 -0.223026 4.14545 1.35823 0.433899 4.12874 -15.2664 15.6797 -1.46603 -16.2304 30.8581 4.26871 -0.0 0.0 -0.0 -3.30492 19.8498 -2.56128 17.9996 -15.4993 50.2914 4.01812 -63.3069 2.47776 -7.95088 -0.347035 0.954563 -1.35967 5.69478 -6.53585 -0.0 0.0 -0.0 12.2964 20.7988 -24.5565 -24.5436 16.71 -67.1658 0.25093 7.08588 -0.0155364 14.1828 -0.279995 1.78548 2.50231 18.8101 -8.66879 0.0 0.0 0.0 -20.3524 41.6224 16.6905 4.00891 -0.185724 -0.586934 29.7312 -21.7248 -4.36295 -24.3295 0.0 0.0 -0.0 0.0 -0.0 24.918 23.8755 -7.66386 -0.303098 -0.012362 -0.0448707 -3.19507 5.86866 -0.486162 -11.2683 0.0 0.0 0.0 0.0 0.0 
2685.87 731.009 -1502.15 -2.74777 55.7234 -2.40299 1.45628 0.821163 3.99914 1.46499 0.565237 4.04319 1.50625 -0.189875 4.07803 1.48334 0.456015 4.05694 -16.2507 15.9022 -0.775445 -17.3441 30.9281 5.30957 -0.0 0.0 -0.0 -3.09076 18.8047 -2.4514 19.194 -16.481 50.0352 4.34594 -65.0647 2.77291 -7.79601 -0.339018 0.93645 -1.36629 5.43914 -6.696 -0.0 0.0 -0.0 12.2068 20.1161 -24.401 -25.644 16.5078 -67.6256 0.251985 7.11537 -0.0156667 14.2539 -0.280278 1.79456 2.49733 18.7937 -8.64326 0.0 0.0 0.0 -21.6418 41.3978 17.5405 5.67401 -0.274882 -0.826726 30.5329 -20.9128 -4.42358 -24.3584 0.0 0.0 -0.0 0.0 -0.0 25.5671 24.6319 -8.36212 4.1207 0.191491 0.603112 -3.20649 7.10513 -0.490745 -12.4102 0.0 0.0 0.0 0.0 0.0 
